<?xml version="1.0" encoding="UTF-8" standalone="no"?>
<!-- Created with Inkscape (http://www.inkscape.org/) -->

<svg
   width="1058.5918mm"
   height="1058.5918mm"
   viewBox="0 0 1058.5918 1058.5918"
   version="1.1"
   id="svg1958"
   xml:space="preserve"
   inkscape:version="1.2.1 (9c6d41e410, 2022-07-14)"
   sodipodi:docname="جامعة أسيوط.svg"
   inkscape:export-filename="جامعة أسيوط.png"
   inkscape:export-xdpi="72"
   inkscape:export-ydpi="72"
   xmlns:inkscape="http://www.inkscape.org/namespaces/inkscape"
   xmlns:sodipodi="http://sodipodi.sourceforge.net/DTD/sodipodi-0.dtd"
   xmlns="http://www.w3.org/2000/svg"
   xmlns:svg="http://www.w3.org/2000/svg"><sodipodi:namedview
     id="namedview1960"
     pagecolor="#ffffff"
     bordercolor="#666666"
     borderopacity="1.0"
     inkscape:showpageshadow="2"
     inkscape:pageopacity="0.0"
     inkscape:pagecheckerboard="0"
     inkscape:deskcolor="#d1d1d1"
     inkscape:document-units="mm"
     showgrid="false"
     showguides="true"
     inkscape:zoom="0.12098715"
     inkscape:cx="1661.3335"
     inkscape:cy="2553.9902"
     inkscape:window-width="1920"
     inkscape:window-height="1052"
     inkscape:window-x="0"
     inkscape:window-y="28"
     inkscape:window-maximized="1"
     inkscape:current-layer="layer1" /><defs
     id="defs1955"><clipPath
       clipPathUnits="userSpaceOnUse"
       id="clipPath7474"><path
         id="path7476"
         style="fill:#f8d752;fill-opacity:1;stroke:none;stroke-width:0.264583px;stroke-linecap:butt;stroke-linejoin:miter;stroke-opacity:1"
         d="m -273.72474,88.843972 a 2.6395891,3.4805583 27.167626 0 0 -3.21893,2.570385 2.6395891,3.4805583 27.167626 0 0 1.31207,3.988903 2.6395891,3.4805583 27.167626 0 0 3.78943,-2.484601 2.6395891,3.4805583 27.167626 0 0 -1.31207,-3.988904 2.6395891,3.4805583 27.167626 0 0 -0.5705,-0.08578 z m -3.84473,7.159252 c -0.76898,0.0052 -1.72942,0.201364 -2.78433,0.846976 -2.59669,1.589204 -2.78047,7.33017 -2.85047,9.23148 -0.07,1.90132 -1.94975,16.74988 -1.94975,16.74988 l 2.60139,2.39624 6.82129,-28.831834 c 0,0 -0.71424,-0.400304 -1.83813,-0.392742 z" /></clipPath></defs><g
     inkscape:label="Layer 1"
     inkscape:groupmode="layer"
     id="layer1"
     transform="translate(1181.8369,239.01225)"><rect
       style="fill:#ffffff;fill-rule:evenodd;stroke:none;stroke-width:0.25;stroke-linecap:square;stroke-dashoffset:11.7921;stop-color:#000000;fill-opacity:1"
       id="rect55034"
       width="1058.3418"
       height="1058.3418"
       x="-1181.7119"
       y="-238.88725" /><g
       id="g19340"
       transform="matrix(5.1336652,0,0,5.116709,-565.42412,-330.12732)"
       style="stroke-width:0.195115"><path
         style="color:#000000;opacity:1;fill:#ffffff;fill-rule:evenodd;stroke-width:0.195115;stroke-linecap:square;stroke-dashoffset:11.7921;-inkscape-stroke:none"
         d="m -17.3125,64.083984 c -21.275046,0 -38.412109,17.640458 -38.412109,39.410156 v 74.92578 h 77.509765 v -74.92578 c 0,-21.769698 -17.1370629,-39.410156 -38.412109,-39.410156 z m 0,4 h 0.685547 c 19.0694567,0 34.412109,15.730048 34.412109,35.410156 v 70.92578 h -69.509765 v -70.92578 c 0,-19.680108 15.342652,-35.410156 34.412109,-35.410156 z"
         id="path19316" /><path
         id="path19318"
         style="opacity:1;fill:#090804;fill-opacity:1;fill-rule:evenodd;stroke:none;stroke-width:0.78046;stroke-linecap:square;stroke-dasharray:none;stroke-dashoffset:11.7921;stop-color:#000000"
         d="m -16.969873,64.084242 0.02429,3.999756 h 0.318843 c 2.452597,0 4.842778,0.261722 7.1473678,0.75706 l 0.00258,-0.001 0.8356079,-3.904671 C -11.216189,64.379 -13.886687,64.084242 -16.626742,64.084242 Z m 16.18970946,3.486609 -1.66346436,3.619417 c 2.05151035,0.948399 3.9946594,2.09709 5.8063639,3.422531 L 5.7641398,71.449684 C 3.7237371,69.947466 1.533871,68.644632 -0.78016354,67.570851 Z M -33.297042,67.63648 c -2.246868,1.053673 -4.376492,2.32218 -6.363952,3.781165 l -0.132809,0.202055 2.351795,3.098002 c 1.810912,-1.339088 3.754443,-2.501141 5.807914,-3.461804 z m 50.310624,16.798975 -3.372404,2.118734 c 1.125416,2.13675 2.041007,4.409457 2.724382,6.788732 l 3.91759,-0.809252 c -0.798948,-2.845274 -1.901601,-5.557324 -3.269568,-8.098214 z m -68.058894,0.170015 c -1.354225,2.545092 -2.44363,5.260058 -3.228744,8.106999 l 3.91759,0.80977 c 0.670204,-2.379827 1.574262,-4.65314 2.686141,-6.792867 v -0.0041 z m -4.679301,21.93044 v 7.14117 h 3.999755 v -7.14117 z m 73.509725,0 v 7.14117 h 4.000272 v -7.14117 z M -55.724613,127.962 v 6.70036 h 3.999755 V 127.962 Z m 73.509725,0 v 6.70036 h 4.000272 V 127.962 Z m -73.509725,20.77599 v 6.70037 h 3.999755 v -6.70037 z m 73.509725,0 v 6.70037 h 4.000272 v -6.70037 z m -73.509725,21.11086 v 8.57105 h 3.999755 v -3.99976 -4.57129 z m 73.509725,0 v 4.57129 3.99976 h 4.000272 v -8.57105 z m -52.944056,4.57078 v 4.00027 h 9.448519 v -4.00027 z m 25.7891239,0 v 4.00027 h 9.44851886 v -4.00027 z" /><path
         id="path19320"
         style="opacity:1;fill:#e2c424;fill-opacity:1;fill-rule:evenodd;stroke:none;stroke-width:0.78046;stroke-linecap:square;stroke-dasharray:none;stroke-dashoffset:11.7921;stop-color:#000000"
         d="m -8.6411824,64.935353 -0.8381918,3.905705 c 2.4528163,0.527196 4.8083755,1.319514 7.0357463,2.34921 l 1.66346436,-3.619417 C -3.2688247,66.416039 -5.900639,65.527473 -8.6411824,64.935353 Z M -25.767786,65.03974 c -2.622216,0.601958 -5.142123,1.47729 -7.529256,2.59674 l 1.662948,3.619418 c 1.41e-4,-6.6e-5 3.76e-4,6.5e-5 5.17e-4,0 2.157061,-1.00909 4.434803,-1.79562 6.806302,-2.333191 z M 5.7641398,71.449684 3.362736,74.612799 c 2.0787292,1.520795 3.9825437,3.275607 5.6797567,5.226037 L 11.728117,76.883978 C 9.9314622,74.868829 7.9325271,73.04613 5.7641398,71.449684 Z m -52.2521078,6.385657 c -1.737975,2.079745 -3.268262,4.347463 -4.557344,6.770129 l 3.374987,2.119768 0.0041,-0.0041 c 1.202403,-2.312461 2.645701,-4.469428 4.297929,-6.434232 z m 66.771118,14.698328 -3.91759,0.809252 c 0.672779,2.342383 1.119839,4.788147 1.311548,7.312219 l 3.980119,-0.38706 C 21.447765,97.606255 20.981173,95.019517 20.28315,92.533669 Z m -75.977791,9.458851 c -0.01814,0.49852 -0.02997,0.99863 -0.02997,1.50172 v 3.04167 h 3.999755 v -3.04167 c 0,-0.50345 0.01267,-1.00363 0.03256,-1.50172 z m 73.479753,11.68456 v 7.32255 h 4.000272 v -7.32255 z m -73.509725,6.96237 v 7.32255 h 3.999755 v -7.32255 z m 73.509725,14.02291 v 7.32255 h 4.000272 v -7.32255 z m -73.509725,6.75308 v 7.32255 h 3.999755 v -7.32255 z m 73.509725,14.02292 v 7.6786 h 4.000272 v -7.6786 z m -73.509725,7.08794 v 7.32255 h 3.999755 v -7.32255 z m 3.999755,11.89384 v 3.99976 h 9.07955 v -3.99976 z m 33.260503,0 v 3.99976 h 9.0945349 v -3.99976 z m 27.1549312,0 v 3.99976 h 9.0945358 v -3.99976 z" /><path
         id="path19322"
         style="opacity:1;fill:#090804;fill-opacity:1;fill-rule:evenodd;stroke:none;stroke-width:0.78046;stroke-linecap:square;stroke-dasharray:none;stroke-dashoffset:11.7921;stop-color:#000000"
         d="m -16.969873,64.084242 0.02429,3.999756 h 0.318843 c 2.452597,0 4.842778,0.261722 7.1473678,0.75706 l 0.00258,-0.001 0.8356079,-3.904671 C -11.216189,64.379 -13.886687,64.084242 -16.626742,64.084242 Z m 16.18970946,3.486609 -1.66346436,3.619417 c 2.05151035,0.948399 3.9946594,2.09709 5.8063639,3.422531 L 5.7641398,71.449684 C 3.7237371,69.947466 1.533871,68.644632 -0.78016354,67.570851 Z M -33.297042,67.63648 c -2.246868,1.053673 -4.376492,2.32218 -6.363952,3.781165 l -0.132809,0.202055 2.351795,3.098002 c 1.810912,-1.339088 3.754443,-2.501141 5.807914,-3.461804 z m 50.310624,16.798975 -3.372404,2.118734 c 1.125416,2.13675 2.041007,4.409457 2.724382,6.788732 l 3.91759,-0.809252 c -0.798948,-2.845274 -1.901601,-5.557324 -3.269568,-8.098214 z m -68.058894,0.170015 c -1.354225,2.545092 -2.44363,5.260058 -3.228744,8.106999 l 3.91759,0.80977 c 0.670204,-2.379827 1.574262,-4.65314 2.686141,-6.792867 v -0.0041 z m -4.679301,21.93044 v 7.14117 h 3.999755 v -7.14117 z m 73.509725,0 v 7.14117 h 4.000272 v -7.14117 z M -55.724613,127.962 v 6.70036 h 3.999755 V 127.962 Z m 73.509725,0 v 6.70036 h 4.000272 V 127.962 Z m -73.509725,20.77599 v 6.70037 h 3.999755 v -6.70037 z m 73.509725,0 v 6.70037 h 4.000272 v -6.70037 z m -73.509725,21.11086 v 8.57105 h 3.999755 v -3.99976 -4.57129 z m 73.509725,0 v 4.57129 3.99976 h 4.000272 v -8.57105 z m -52.944056,4.57078 v 4.00027 h 9.448519 v -4.00027 z m 25.7891239,0 v 4.00027 h 9.44851886 v -4.00027 z" /><path
         style="color:#000000;opacity:1;fill:none;fill-rule:evenodd;stroke:#100f0a;stroke-width:0.195115;stroke-linecap:square;stroke-dashoffset:11.7921;stroke-opacity:1;-inkscape-stroke:none"
         d="m -17.3125,64.083984 c -21.275046,0 -38.412109,17.640458 -38.412109,39.410156 v 74.92578 h 77.509765 v -74.92578 c 0,-21.769698 -17.1370629,-39.410156 -38.412109,-39.410156 z m 0,4 h 0.685547 c 19.0694567,0 34.412109,15.730048 34.412109,35.410156 v 70.92578 h -69.509765 v -70.92578 c 0,-19.680108 15.342652,-35.410156 34.412109,-35.410156 z"
         id="path19324" /><path
         id="path19326"
         style="opacity:1;fill:#e2c424;fill-opacity:1;fill-rule:evenodd;stroke:#100f0a;stroke-width:0.0975579;stroke-linecap:square;stroke-dasharray:none;stroke-dashoffset:11.7921;stroke-opacity:1;stop-color:#000000"
         d="m -19.398594,97.653925 -16.462762,16.356195 c -0.790988,0.0988 -1.989599,0.49825 -3.254141,1.83343 -2.199475,2.32233 -2.088738,3.77519 -1.768676,5.18913 0,0 1.328965,-3.34392 2.615142,-3.07498 1.286185,0.26898 0.609822,1.36919 0.249488,1.76212 -0.3604,0.3929 -0.08326,1.23719 1.099389,0.19511 1.093134,-0.96314 2.545411,-1.95886 2.143292,-5.07695 l 16.330745,-16.226038 z m 13.6474555,2.556525 -0.9863026,0.92335 15.7393358,16.8005 c -0.5135285,3.10169 0.9018788,4.14912 1.9598183,5.1508 1.144566,1.08376 1.451891,0.24993 1.105794,-0.15561 -0.346032,-0.40559 -0.982718,-1.52956 0.312275,-1.75231 1.294983,-0.2227 2.503385,3.16657 2.503385,3.16657 0.370494,-1.40157 0.533135,-2.84902 -1.58176,-5.24863 -1.215914,-1.3796 -2.399628,-1.82192 -3.186571,-1.94895 z m -16.1336125,4.0317 -12.590159,19.49513 c -0.751637,0.26545 -1.836878,0.91173 -2.7871,2.48617 -1.65276,2.73849 -1.234481,4.13336 -0.619835,5.44633 0,0 0.584315,-3.54999 1.898255,-3.56193 1.313956,-0.0119 0.888015,1.20733 0.619909,1.66815 -0.268175,0.4608 0.18309,1.22635 1.115898,-0.0443 0.862221,-1.17438 2.068242,-2.45757 1.009487,-5.41785 l 12.4884,-19.339 z m 16.1759346,0.28761 -1.1277521,0.74307 12.6690013,19.22134 c -1.0309948,2.97006 0.1866061,4.24197 1.0597831,5.40822 0.9446642,1.26186 1.3886799,0.4921 1.1162025,0.0338 -0.2724087,-0.45828 -0.7093261,-1.67392 0.6046833,-1.67433 1.3139943,-3.6e-4 1.9311663,3.54431 1.9311663,3.54431 0.602328,-1.31866 1.007375,-2.71782 -0.6709502,-5.44071 -0.9649195,-1.56546 -2.0561169,-2.2014 -2.810206,-2.45981 z m -2.1524795,2.63077 -1.2162163,0.58808 10.02367694,20.72451 c -1.41370186,2.80814 -0.37450359,4.22926 0.33723186,5.50049 0.7699985,1.37534 1.3117054,0.67076 1.1020493,0.18055 -0.2095872,-0.49021 -0.4825285,-1.75248 0.8200516,-1.57955 1.3025624,0.17295 1.4473243,3.76789 1.4473243,3.76789 0.7709828,-1.22772 1.3566853,-2.56084 0.052137,-5.4813 -0.7500255,-1.67905 -1.7480956,-2.45396 -2.4615165,-2.80956 z m -12.3235711,0.39876 -8.817672,21.46609 c -0.690513,0.39826 -1.639709,1.23182 -2.286405,2.95331 -1.124823,2.99428 -0.458727,4.28989 0.385376,5.46852 0,0 -0.07431,-3.59759 1.215351,-3.84931 1.289677,-0.2517 1.093895,1.02533 0.914458,1.52736 -0.179506,0.50204 0.403965,1.17191 1.089038,-0.24765 0.633238,-1.31209 1.584235,-2.79368 0.0026,-5.51081 l 8.746875,-21.29487 z m 2.313247,0.78845 -3.852178,22.88483 c -0.58535,0.54109 -1.326852,1.56431 -1.576849,3.3862 -0.434829,3.16888 0.500982,4.28471 1.584827,5.2475 0,0 -0.86778,-3.49194 0.334282,-4.02262 1.202088,-0.53066 1.29323,0.75793 1.229254,1.28721 -0.06404,0.5293 0.653277,1.05396 1.00747,-0.48195 0.327407,-1.41965 0.927868,-3.07494 -1.215427,-5.37506 l 3.820513,-22.70187 z m 8.1010807,0.10747 -1.3421437,0.15298 2.6249306,23.05818 c -0.4129337,0.68185 -0.8425796,1.86934 -0.579128,3.68935 0.4582277,3.16557 1.666367,3.97995 2.9741543,4.60556 0,0 -1.7993281,-3.11611 -0.790834,-3.95844 1.0085179,-0.84233 1.4520461,0.37048 1.5368993,0.89683 0.084782,0.52636 0.9194274,0.83254 0.8351787,-0.74142 -0.077846,-1.45482 0.04145,-3.21195 -2.6542234,-4.82985 z m -5.5707267,0.42468 -5.49e-4,23.20672 c -0.487423,0.63075 -1.048695,1.76247 -0.992842,3.60059 0.09715,3.1971 1.205281,4.14246 2.433892,4.91202 0,0 -1.435128,-3.29954 -0.337813,-4.02236 1.09734,-0.72282 1.400928,0.53256 1.425687,1.06513 0.02469,0.53258 0.819304,0.93091 0.913668,-0.64248 0.08724,-1.45429 0.404219,-3.18624 -2.091106,-5.09873 l -1.5e-5,-23.0211 z"
         transform="rotate(1.7404554)" /><circle
         style="opacity:1;fill:#e2c424;fill-opacity:1;fill-rule:evenodd;stroke:#100f0a;stroke-width:0.0975579;stroke-linecap:square;stroke-dasharray:none;stroke-dashoffset:11.7921;stroke-opacity:1;stop-color:#000000"
         id="circle19328"
         cx="-16.969727"
         cy="92.020515"
         r="18.212557" /><path
         id="path19330"
         style="fill:#0f0e09;fill-opacity:1;stroke:none;stroke-width:0.0516242px;stroke-linecap:butt;stroke-linejoin:miter;stroke-opacity:1"
         d="m -8.8965812,92.086667 v 61.739903 h 14.19449 v -0.77825 c 0,0 -0.95493,0.15591 -1.15446,-1.06557 -0.19952,-1.22147 -0.66392,-1.69085 -1.2857,-1.69085 0,0 -0.02748,0.62342 0.24753,0.8878 0.27496,0.26438 -0.04256,1.24867 -0.96635,0.86662 -0.92379,-0.38207 -2.73296992,-1.54525 -1.82366992,-3.1285 0.90931992,-1.58325 2.87272992,-3.54884 2.71352992,-6.70708 -0.15919,-3.15823 -2.33763992,-3.74147 -3.80389992,-3.7083 -1.46625008,0.0332 -3.29799008,1.49345 -3.03754008,-1.16944 0,0 -2.24792,1.24987 -0.0708,3.0825 0,0 -1.29884,2.62603 0.86352,2.97708 0,0 -0.7464,-2.11152 0.49661,-2.52439 1.24299,-0.41287 3.31995008,0.1171 3.39049008,1.56476 0,0 0.13112,2.17963 -1.97817008,4.37441 -2.10931,2.19478 -1.37535,2.99687 -0.83768,3.47317 0.53767,0.47631 1.33673008,1.89291 -0.58498,1.89291 h -3.18998 c 0,0 -1.04542,0.0512 -1.04542,-1.09657 V 97.382985 c 0,0 -0.16041,-1.005107 1.85157,-1.005107 0,0 0.30967,-1.749995 -2.07791,-1.792655 0,0 0.24938,-2.498556 -1.90118,-2.498556 z M -41.715762,111.20901 c -2.15056,0 -1.90066,2.49804 -1.90066,2.49804 -2.38758,0.0427 -2.07791,1.79266 -2.07791,1.79266 2.01198,0 1.85157,1.00511 1.85157,1.00511 v 47.88183 c 0,1.14777 -1.04593,1.09657 -1.04593,1.09657 h -0.47336 c -0.99959,0 -1.24131,-0.72936 -0.96635,-0.99374 0.27501,-0.26438 0.24753,-0.88831 0.24753,-0.88831 -0.62179,0 -1.08618,0.4699 -1.28571,1.69136 -0.19953,1.22148 -1.15445,1.06557 -1.15445,1.06557 v 0.77825 h 6.80527 12.61887 v -6.37119 c 0,0 -0.15551,-2.17313 -1.99058,-2.51664 0,0 0.02882,-0.66353 -0.41186,-0.84543 -0.44068,0.1819 -0.41186,0.84543 -0.41186,0.84543 -1.83507,0.34351 -2.23242,1.495 -2.23242,1.495 h -7.57215 z m 49.4915508,0 v 55.92734 h 6.8057892 v -0.77825 c 0,0 -0.95544,0.15591 -1.15497,-1.06557 -0.19953,-1.22146 -0.66392,-1.69136 -1.28571,-1.69136 0,0 -0.02748,0.62393 0.24753,0.88831 0.27496,0.26438 0.03324,0.99374 -0.96635,0.99374 h -0.47336 c 0,0 -1.0459292,0.0512 -1.0459292,-1.09657 v -47.88183 c 0,0 -0.16041,-1.00511 1.8515692,-1.00511 0,0 0.30967,-1.75 -2.0779092,-1.79266 0,0 0.2499,-2.49804 -1.90066,-2.49804 z m -40.9597708,28.15281 -3.08147,4.28191 0.91312,0.75344 c 0,0 0.93108,2.27589 -0.87643,2.48874 -1.80756,0.21284 -1.86138,2.21795 -1.86138,2.21795 -1.27131,0.20949 -1.2113,1.63091 -1.2113,1.63091 v 2.21071 l -0.9126,0.88109 h 28.82408 l -0.90486,-1.13792 c 1.54311,-4.18564 -1.88102,-4.18165 -1.88102,-4.18165 -0.0793,-2.17266 -1.3255,-2.1177 -1.3255,-2.1177 0,0 -1.28186,-0.0549 -1.36116,2.1177 0,0 -2.75277,0.56329 -1.80402,3.13676 h -5.94848 c 0,0 -0.6196,-0.11944 -0.6196,-0.6196 0,-0.50019 0.51677,-0.50127 0.51677,-0.50127 0,0 1.92443,-0.25419 1.2547,-2.31148 0,0 0.36184,-0.3423 0.37931,-1.0666 0.0175,-0.72432 1.47174,-0.93897 1.47174,-0.93897 0,0 -0.40266,0.0257 -0.80874,-0.57412 -0.40606,-0.59979 -0.8105,-0.64061 -1.65674,-0.26665 0,0 0.48503,-1.92871 -1.834,-3.04168 -2.31903,1.11297 -1.83399,3.04168 -1.83399,3.04168 -0.84624,-0.37396 -1.25067,-0.33314 -1.65675,0.26665 -0.40608,0.59982 -0.80874,0.57412 -0.80874,0.57412 0,0 1.45425,0.21465 1.47175,0.93897 0.0175,0.7243 0.3793,1.0666 0.3793,1.0666 -0.66973,2.05729 1.25471,2.31148 1.25471,2.31148 0,0 0.51676,9e-4 0.51676,0.50127 0,0.50016 -0.6196,0.6196 -0.6196,0.6196 h -5.23327 c -0.77066,0 -0.74259,-0.62891 -0.74259,-0.62891 z m -5.65547,0.48886 a 1.0510638,1.0510638 0 0 0 -1.0511,1.0511 1.0510638,1.0510638 0 0 0 1.0511,1.05109 1.0510638,1.0510638 0 0 0 1.05058,-1.05109 1.0510638,1.0510638 0 0 0 -1.05058,-1.0511 z m 0,4.10724 a 1.0510638,1.0510638 0 0 0 -1.0511,1.0511 1.0510638,1.0510638 0 0 0 1.0511,1.0511 1.0510638,1.0510638 0 0 0 1.05058,-1.0511 1.0510638,1.0510638 0 0 0 -1.05058,-1.0511 z m 12.92789,1.76578 a 1.2671967,1.5310696 0 0 1 1.26711,1.53118 1.2671967,1.5310696 0 0 1 -1.26711,1.53117 1.2671967,1.5310696 0 0 1 -1.2671,-1.53117 1.2671967,1.5310696 0 0 1 1.2671,-1.53118 z m -9.97975,3.5295 c 0.51518,1.5e-4 0.93275,0.53525 0.93276,1.19528 -1e-5,0.66003 -0.41758,1.19513 -0.93276,1.19528 h -0.83302 c -0.72218,-1.1e-4 -1.30751,-0.38835 -1.30742,-0.86713 -1e-4,-0.47881 0.58523,-0.86703 1.30742,-0.86714 h 10e-4 c 0.1586,-0.4022 0.48027,-0.65594 0.83199,-0.65629 z m 20.15846,0.48266 a 1.3077258,0.95404404 0 0 1 1.30793,0.95395 1.3077258,0.95404404 0 0 1 -1.30793,0.95395 1.3077258,0.95404404 0 0 1 -1.30742,-0.95395 1.3077258,0.95404404 0 0 1 1.30742,-0.95395 z m 12.7186008,5.42861 a 1.0510638,1.0510638 0 0 0 -1.0511,1.0511 1.0510638,1.0510638 0 0 0 1.0511,1.0511 1.0510638,1.0510638 0 0 0 1.0511,-1.0511 1.0510638,1.0510638 0 0 0 -1.0511,-1.0511 z m -17.5446608,2.26033 c -0.54391,0 -0.70177,0.93482 -0.70177,0.93482 -0.67808,-0.0435 -0.73174,0.83251 -0.73174,0.83251 -2.48052,-0.87554 -2.71611,2.09341 -2.71611,2.09341 -1.91346,0.11908 -2.12287,1.76918 -2.12287,2.92127 v 2.92954 h 2.127 2.11305 a 4.0721264,4.0721264 0 0 1 -4.0721,4.0721 4.0721264,4.0721264 0 0 1 -2.15594,-0.62063 4.853003,4.853003 0 0 0 3.40703,1.40146 4.853003,4.853003 0 0 0 4.85345,-4.85293 h 23.6884708 1.58544 v -9.48521 c -2.15056,0 -1.90066,2.49804 -1.90066,2.49804 -2.38757992,0.0427 -2.07790992,1.79317 -2.07790992,1.79317 2.01197992,0 1.85155992,1.00459 1.85155992,1.00459 v 1.32137 c 0,0.76351 -1.04593,0.75189 -1.04593,0.75189 h -2.37865992 v -7.36906 c -2.15056008,0 -1.90066008,2.49804 -1.90066008,2.49804 -2.38758,0.0427 -2.07791,1.79317 -2.07791,1.79317 2.01198,0 1.85157,1.00459 1.85157,1.00459 v 1.32137 c 0,0.76351 -1.04594,0.75189 -1.04594,0.75189 h -1.97455 v -7.36906 c -2.15056,0 -1.90118,2.49804 -1.90118,2.49804 -2.38758,0.0427 -2.07791,1.79317 -2.07791,1.79317 2.01198,0 1.85157,1.00459 1.85157,1.00459 v 1.32137 c 0,0.76351 -1.04593,0.75189 -1.04593,0.75189 h -4.3547708 v -7.36906 c -2.15056,0 -1.90066,2.49804 -1.90066,2.49804 -2.38758,0.0427 -2.07791,1.79317 -2.07791,1.79317 2.01198,0 1.85157,1.00459 1.85157,1.00459 v 1.32137 c 0,0.76351 -1.04593,0.75189 -1.04593,0.75189 h -3.87418 z m -11.79308,2.90525 c 0.71327,0.007 1.17822,0.22356 1.17822,1.0976 v 3.01998 c 0,0.34488 -0.11021,0.60461 -0.70228,0.60461 h -9.83971 v -2.93212 c 0,0 -0.02031,-0.50695 1.16117,-0.50695 h 6.08231 c 0,0 0.5714,0.0312 0.60358,-0.26251 0.0322,-0.29373 0.80343,-1.02791 1.51671,-1.02061 z m 9.73325,1.86035 v 2.8298 h -2.08566 v -0.7276 c 0,-0.72732 0.77928,-0.88987 0.77928,-0.88987 0,-1.12712 1.30638,-1.21233 1.30638,-1.21233 z m 5.71232,6.51381 a 1.0510638,1.0510638 0 0 0 -1.0511,1.0511 1.0510638,1.0510638 0 0 0 1.0511,1.0511 1.0510638,1.0510638 0 0 0 1.0511,-1.0511 1.0510638,1.0510638 0 0 0 -1.0511,-1.0511 z m 3.15329,0 a 1.0510638,1.0510638 0 0 0 -1.0511,1.0511 1.0510638,1.0510638 0 0 0 1.0511,1.0511 1.0510638,1.0510638 0 0 0 1.0511,-1.0511 1.0510638,1.0510638 0 0 0 -1.0511,-1.0511 z" /></g></g></svg>
